<svg width="150" height="25" viewBox="0 0 150 25" fill="none" xmlns="http://www.w3.org/2000/svg">
<path d="M0 24V21.5L23.2188 2.5H1V0H27.5V2.5L4.15625 21.5H28V24H0ZM41.4688 24.3438C39.3125 24.3438 37.5312 24.2292 36.125 24C34.7292 23.7812 33.6875 23.2917 33 22.5312C32.3229 21.7708 31.9844 20.5885 31.9844 18.9844C31.9844 17.349 32.3021 16.151 32.9375 15.3906C33.5833 14.6198 34.599 14.1198 35.9844 13.8906C37.3802 13.6615 39.2083 13.5469 41.4688 13.5469C43.3021 13.5469 44.8385 13.5885 46.0781 13.6719C47.3177 13.7552 48.4271 13.901 49.4062 14.1094C49.3854 12.724 49.2917 11.6354 49.125 10.8438C48.9583 10.0417 48.6458 9.44792 48.1875 9.0625C47.7292 8.67708 47.0573 8.43229 46.1719 8.32812C45.2969 8.21354 44.1302 8.15625 42.6719 8.15625C41.0052 8.15625 39.6979 8.19271 38.75 8.26562C37.8125 8.33854 37.1302 8.46875 36.7031 8.65625C36.276 8.84375 36.0052 9.11458 35.8906 9.46875C35.7865 9.82292 35.7344 10.2812 35.7344 10.8438H32.7344C32.7344 9.71875 32.8854 8.8125 33.1875 8.125C33.5 7.4375 34.026 6.91667 34.7656 6.5625C35.5052 6.20833 36.5156 5.96875 37.7969 5.84375C39.0885 5.71875 40.7135 5.65625 42.6719 5.65625C44.776 5.65625 46.4688 5.79167 47.75 6.0625C49.0417 6.33333 50.0208 6.82292 50.6875 7.53125C51.3646 8.22917 51.8177 9.20833 52.0469 10.4688C52.2865 11.7292 52.4062 13.3542 52.4062 15.3438V24H49.4062V22.7656C49.0521 23.1406 48.5625 23.4427 47.9375 23.6719C47.3125 23.901 46.4792 24.0677 45.4375 24.1719C44.4062 24.2865 43.0833 24.3438 41.4688 24.3438ZM41.4688 21.9062C43.25 21.9062 44.6719 21.8854 45.7344 21.8438C46.7969 21.8021 47.5885 21.6875 48.1094 21.5C48.6406 21.3125 48.9896 21.0104 49.1562 20.5938C49.3229 20.1771 49.4062 19.5938 49.4062 18.8438V16.0781L41.4688 15.9844C40.0625 15.9635 38.9271 15.9844 38.0625 16.0469C37.2083 16.099 36.5573 16.224 36.1094 16.4219C35.6615 16.6094 35.3594 16.9115 35.2031 17.3281C35.0573 17.7344 34.9844 18.2865 34.9844 18.9844C34.9844 19.6615 35.0573 20.1979 35.2031 20.5938C35.3594 20.9896 35.6615 21.2812 36.1094 21.4688C36.5573 21.6562 37.2083 21.776 38.0625 21.8281C38.9271 21.8802 40.0625 21.9062 41.4688 21.9062ZM66.8594 24.3438C64.849 24.3438 63.1406 24.2396 61.7344 24.0312C60.3281 23.8333 59.1927 23.4219 58.3281 22.7969C57.4635 22.1615 56.8333 21.2135 56.4375 19.9531C56.0417 18.6927 55.8438 17.0104 55.8438 14.9062C55.8438 12.8646 56.0417 11.2292 56.4375 10C56.8333 8.77083 57.4635 7.84375 58.3281 7.21875C59.1927 6.59375 60.3281 6.17708 61.7344 5.96875C63.1406 5.76042 64.849 5.65625 66.8594 5.65625C69.2656 5.65625 71.2448 5.79688 72.7969 6.07812C74.3594 6.34896 75.5156 6.91146 76.2656 7.76562C77.0156 8.61979 77.3906 9.92188 77.3906 11.6719H74.5156C74.5156 10.6615 74.3073 9.90625 73.8906 9.40625C73.474 8.90625 72.7135 8.57292 71.6094 8.40625C70.5052 8.23958 68.9219 8.15625 66.8594 8.15625C65.0052 8.15625 63.5365 8.23438 62.4531 8.39062C61.3698 8.54688 60.5729 8.85417 60.0625 9.3125C59.5521 9.76042 59.2188 10.4323 59.0625 11.3281C58.9167 12.224 58.8438 13.4167 58.8438 14.9062C58.8438 16.4479 58.9167 17.6823 59.0625 18.6094C59.2188 19.5365 59.5521 20.2344 60.0625 20.7031C60.5729 21.1615 61.3698 21.4688 62.4531 21.625C63.5365 21.7708 65.0052 21.8438 66.8594 21.8438C68.4323 21.8438 69.7188 21.8021 70.7188 21.7188C71.7188 21.625 72.4948 21.4479 73.0469 21.1875C73.599 20.9167 73.9792 20.5312 74.1875 20.0312C74.4062 19.5208 74.5156 18.8438 74.5156 18H77.3906C77.3906 19.3958 77.1823 20.5156 76.7656 21.3594C76.349 22.2031 75.7135 22.8385 74.8594 23.2656C74.0052 23.6927 72.9115 23.9792 71.5781 24.125C70.2552 24.2708 68.6823 24.3438 66.8594 24.3438ZM81 24V0H84V13.8594L95.9531 6H100.5L87.7969 14.4531L101 24H96.5312L84 14.7656V24H81ZM111.094 24L125.094 0H129.094L143.094 24H139.594L136.594 18.5H117.594L114.594 24H111.094ZM119.094 16H135.094L127.094 2L119.094 16ZM146.094 24V21H149.094V24H146.094Z" fill="white"/>
</svg>
